<svg width="48" height="48" viewBox="0 0 48 48" fill="none" xmlns="http://www.w3.org/2000/svg">
<path d="M24.001 3.00579C24.001 3.00579 36.3793 2.4523 42.942 14.8499H22.9478C22.9478 14.8499 19.1745 14.7287 15.9512 19.29C15.0253 21.2044 14.0301 23.1765 15.1469 27.0631C13.538 24.3471 6.60526 12.3186 6.60526 12.3186C6.60526 12.3186 11.4953 3.49591 24.0009 3.00579H24.001Z" fill="#EF3F36"/>
<path d="M42.2994 34.4785C42.2994 34.4785 36.5875 45.4402 22.5369 44.8982C24.273 41.9054 32.5367 27.6453 32.5367 27.6453C32.5367 27.6453 34.5333 24.4508 32.1779 19.388C30.9799 17.6292 29.7589 15.7898 25.8239 14.8094C28.9894 14.7807 42.9071 14.8094 42.9071 14.8094C42.9071 14.8094 48.121 23.4417 42.2994 34.4785Z" fill="#FCD900"/>
<path d="M5.78906 34.5651C5.78906 34.5651 -0.883396 24.1568 6.61652 12.3011C8.34688 15.294 16.6107 29.5542 16.6107 29.5542C16.6107 29.5542 18.3931 32.8756 23.966 33.3713C26.0899 33.2157 28.3005 33.0831 31.1247 30.1826C29.5677 32.9275 22.5827 44.9215 22.5827 44.9215C22.5827 44.9215 12.4671 45.1061 5.78889 34.5651H5.78906Z" fill="#61BC5B"/>
<path d="M22.5311 45.002L25.3436 33.308C25.3436 33.308 28.4339 33.0656 31.0266 30.2345C29.4177 33.0544 22.5311 45.002 22.5311 45.002Z" fill="#5AB055"/>
<path d="M14.5798 24.1336C14.5798 18.9786 18.7754 14.798 23.9489 14.798C29.1224 14.798 33.3181 18.9786 33.3181 24.1336C33.3181 29.2887 29.1224 33.4692 23.9489 33.4692C18.7754 33.4635 14.5798 29.2887 14.5798 24.1336Z" fill="white"/>
<path d="M16.148 24.1337C16.148 19.8436 19.6376 16.3607 23.949 16.3607C28.2545 16.3607 31.7499 19.8379 31.7499 24.1337C31.7499 28.4239 28.2604 31.9069 23.949 31.9069C19.6434 31.9069 16.148 28.4239 16.148 24.1337Z" fill="url(#paint0_linear_112_2474)"/>
<path d="M42.9013 14.8153L31.3214 18.2001C31.3214 18.2001 29.5738 15.6455 25.8181 14.8153C29.0762 14.7979 42.9013 14.8153 42.9013 14.8153Z" fill="#EACA05"/>
<path d="M14.9213 26.6365C13.295 23.8282 6.60526 12.3185 6.60526 12.3185L15.1816 20.772C15.1816 20.772 14.3019 22.577 14.6319 25.1603L14.9211 26.6365H14.9213Z" fill="#DF3A32"/>
<defs>
<linearGradient id="paint0_linear_112_2474" x1="23.9486" y1="16.4704" x2="23.9486" y2="31.4389" gradientUnits="userSpaceOnUse">
<stop stop-color="#86BBE5"/>
<stop offset="1" stop-color="#1072BA"/>
</linearGradient>
</defs>
</svg>
