<svg width="48" height="48" viewBox="0 0 48 48" fill="none" xmlns="http://www.w3.org/2000/svg">
<path fill-rule="evenodd" clip-rule="evenodd" d="M7.30547 33.4824C6.93315 34.1143 6.51499 34.8475 6.15985 35.4317C5.84197 35.9908 6.01262 36.7118 6.54364 37.0532L13.9902 41.8222C14.2515 41.9902 14.5668 42.0419 14.8651 41.9657C15.1635 41.8894 15.4199 41.6917 15.5768 41.4169C15.8747 40.8982 16.2585 40.2246 16.6766 39.5033C19.6266 34.4362 22.5938 35.0562 27.9438 37.7149L35.3273 41.3692C35.6069 41.5077 35.9286 41.5225 36.2189 41.4102C36.5091 41.2979 36.7434 41.068 36.8682 40.7731L40.4139 32.4272C40.6644 31.8312 40.4095 31.1361 39.841 30.8654C38.283 30.1023 35.1841 28.5822 32.3945 27.1813C22.3589 22.1082 13.8298 22.4361 7.30547 33.4824Z" fill="url(#paint0_linear_112_2488)"/>
<path fill-rule="evenodd" clip-rule="evenodd" d="M40.6946 14.5433C41.0669 13.9114 41.4851 13.1781 41.8402 12.5939C42.1581 12.0349 41.9875 11.3139 41.4565 10.9724L34.0099 6.20339C33.7464 6.01867 33.421 5.95615 33.1115 6.03074C32.802 6.10534 32.5361 6.31037 32.3774 6.59684C32.0796 7.11547 31.6958 7.7891 31.2776 8.51042C28.3277 13.5775 25.3605 12.9576 20.0105 10.2988L12.6499 6.66241C12.3702 6.52389 12.0486 6.5091 11.7583 6.62141C11.468 6.73372 11.2338 6.96356 11.109 7.25854L7.56331 15.6044C7.31281 16.2004 7.5677 16.8955 8.13612 17.1662C9.69417 17.9293 12.7931 19.4494 15.5826 20.8503C25.6412 25.9174 34.1703 25.5776 40.6946 14.5433Z" fill="url(#paint1_linear_112_2488)"/>
<defs>
<linearGradient id="paint0_linear_112_2488" x1="40.2134" y1="44.2843" x2="31.2998" y2="24.6354" gradientUnits="userSpaceOnUse">
<stop offset="0.18" stop-color="#0052CC"/>
<stop offset="1" stop-color="#2684FF"/>
</linearGradient>
<linearGradient id="paint1_linear_112_2488" x1="7.78671" y1="3.73541" x2="16.7142" y2="23.3934" gradientUnits="userSpaceOnUse">
<stop offset="0.18" stop-color="#0052CC"/>
<stop offset="1" stop-color="#2684FF"/>
</linearGradient>
</defs>
</svg>
