<svg width="72" height="72" viewBox="0 0 72 72" fill="none" xmlns="http://www.w3.org/2000/svg">
<path fill-rule="evenodd" clip-rule="evenodd" d="M36 36C36 30.4081 40.5331 25.875 46.125 25.875C51.7169 25.875 56.25 30.4081 56.25 36C56.25 41.5919 51.7169 46.125 46.125 46.125C40.5331 46.125 36 41.5919 36 36Z" fill="#00B6FF"/>
<path fill-rule="evenodd" clip-rule="evenodd" d="M15.75 56.25C15.75 50.6581 20.2831 46.125 25.875 46.125H36V56.25C36 61.8419 31.4669 66.375 25.875 66.375C20.2831 66.375 15.75 61.8419 15.75 56.25Z" fill="#24CB71"/>
<path fill-rule="evenodd" clip-rule="evenodd" d="M36 5.625V25.875H46.125C51.7169 25.875 56.25 21.3419 56.25 15.75C56.25 10.1581 51.7169 5.625 46.125 5.625H36Z" fill="#FF7237"/>
<path fill-rule="evenodd" clip-rule="evenodd" d="M15.75 15.75C15.75 21.3419 20.2831 25.875 25.875 25.875H36V5.625H25.875C20.2831 5.625 15.75 10.1581 15.75 15.75Z" fill="#FF3737"/>
<path fill-rule="evenodd" clip-rule="evenodd" d="M15.75 36C15.75 41.5919 20.2831 46.125 25.875 46.125H36V25.875H25.875C20.2831 25.875 15.75 30.4081 15.75 36Z" fill="#874FFF"/>
</svg>
