<svg width="60" height="60" viewBox="0 0 60 60" fill="none" xmlns="http://www.w3.org/2000/svg">
<path d="M30.0157 55.6218L40.3657 23.768H19.6657L30.0157 55.6218Z" fill="#E24329"/>
<path d="M30.0162 55.6219L19.6662 23.7681H5.16098L30.0162 55.6219Z" fill="#FC6D26"/>
<path d="M5.16055 23.768L2.01538 33.4481C1.7285 34.331 2.0427 35.2982 2.79377 35.8438L30.0158 55.6218L5.16055 23.768Z" fill="#FCA326"/>
<path d="M5.16116 23.7681H19.6664L13.4326 4.5828C13.112 3.59548 11.7154 3.59574 11.3947 4.5828L5.16116 23.7681Z" fill="#E24329"/>
<path d="M30.0178 55.6219L40.3678 23.7681H54.873L30.0178 55.6219Z" fill="#FC6D26"/>
<path d="M54.873 23.768L58.0182 33.4481C58.3051 34.331 57.9909 35.2982 57.2398 35.8438L30.0178 55.6218L54.873 23.768Z" fill="#FCA326"/>
<path d="M54.8721 23.7681H40.3668L46.6007 4.5828C46.9213 3.59548 48.3179 3.59574 48.6385 4.5828L54.8721 23.7681Z" fill="#E24329"/>
</svg>
