<svg width="72" height="72" viewBox="0 0 72 72" fill="none" xmlns="http://www.w3.org/2000/svg">
<path fill-rule="evenodd" clip-rule="evenodd" d="M12.861 65.74L5.12243 56.0996C3.26054 53.7801 2.25 50.9279 2.25 47.9922V13.0837C2.25 8.68644 5.76807 5.03768 10.3066 4.72782L46.1973 2.27741C48.8047 2.09939 51.3963 2.79245 53.5382 4.24058L66.1483 12.7663C68.4055 14.2924 69.75 16.7872 69.75 19.4496V59.1371C69.75 63.4404 66.2908 67.0034 61.8472 67.2769L22.0125 69.729C18.4665 69.9473 15.039 68.4533 12.861 65.74Z" fill="white"/>
<path d="M25.3083 30.5521V30.0951C25.3083 28.9366 26.2362 27.9757 27.432 27.8959L36.1425 27.3144L48.1885 45.0529V29.4843L45.0879 29.071V28.8539C45.0879 27.6818 46.037 26.7147 47.2481 26.6526L55.1737 26.2466V27.3872C55.1737 27.9226 54.7755 28.3806 54.2298 28.4729L52.3226 28.7955V54.0083L49.9289 54.8315C47.9292 55.5192 45.703 54.783 44.5582 53.0556L32.8638 35.4087V52.2517L36.4633 52.9405L36.4131 53.2744C36.2561 54.3202 35.3531 55.1112 34.2608 55.1598L25.3083 55.5583C25.19 54.4337 26.0329 53.4275 27.1957 53.3054L28.3733 53.1817V30.7243L25.3083 30.5521Z" fill="black"/>
<path fill-rule="evenodd" clip-rule="evenodd" d="M46.5186 6.67526L10.6279 9.12566C8.4781 9.27244 6.81165 11.0008 6.81165 13.0837V47.9922C6.81165 49.9493 7.48534 51.8508 8.7266 53.3971L16.4652 63.0376C17.7163 64.5963 19.6853 65.4545 21.7224 65.3291L61.5571 62.8771C63.5987 62.7514 65.1881 61.1143 65.1881 59.1371V19.4496C65.1881 18.2263 64.5704 17.0801 63.5333 16.3789L50.9232 7.85316C49.638 6.98429 48.0831 6.56845 46.5186 6.67526ZM12.4077 13.6282C11.9085 13.2587 12.1461 12.4887 12.7732 12.4438L46.76 10.006C47.8429 9.92832 48.919 10.2265 49.7947 10.847L56.6139 15.6783C56.8728 15.8617 56.7514 16.2577 56.4309 16.2751L20.4388 18.2326C19.3496 18.2918 18.2745 17.9718 17.4084 17.3306L12.4077 13.6282ZM18.7507 24.3691C18.7507 23.1998 19.6953 22.234 20.9032 22.1682L58.957 20.0958C60.1342 20.0317 61.1253 20.937 61.1253 22.0766V56.4418C61.1253 57.609 60.184 58.5738 58.9784 58.6424L21.1656 60.7939C19.8555 60.8685 18.7507 59.8617 18.7507 58.5933V24.3691Z" fill="black"/>
</svg>
