<svg width="83" height="65" viewBox="0 0 83 65" fill="none" xmlns="http://www.w3.org/2000/svg">
<path d="M0 48.7682V23.4871H10.2142V48.7682C10.2142 51.6641 10.8142 53.6991 12.0144 54.8732C13.2406 56.0211 14.9364 56.5951 17.1019 56.5951C19.0064 56.5951 20.6892 56.0603 22.1503 54.9906C23.6374 53.8948 24.7723 52.5121 25.555 50.8423V23.4871H35.7692V63.7176H26.1029L25.8681 58.8258H25.6724C24.4201 60.5738 22.7373 61.9696 20.624 63.0132C18.5368 64.0307 16.1757 64.5395 13.5406 64.5395C9.52279 64.5395 6.26156 63.3263 3.75694 60.8999C1.25231 58.4736 0 54.4297 0 48.7682Z" fill="black"/>
<path d="M69.3841 24.926C68.2086 24.926 66.8995 25.7008 65.4569 27.2503C64.0676 28.7998 62.6517 30.9371 61.209 33.6622C59.7664 36.3338 58.4038 39.3527 57.1215 42.7189C55.8391 46.0851 54.7705 49.6116 53.9156 53.2984L55.3582 44.963C57.2818 39.2992 59.1786 34.7308 61.0487 31.2577C62.9188 27.7846 64.8424 25.2466 66.8194 23.6437C68.7964 22.0407 70.8802 21.2392 73.0709 21.2392C76.0631 21.2392 78.3607 22.2544 79.9636 24.2848C81.62 26.3153 82.4482 29.3074 82.4482 33.2614C82.4482 35.7193 82.1009 38.3642 81.4063 41.1961C80.7117 44.028 79.6698 46.8331 78.2805 49.6116C76.9447 52.3901 75.2883 54.9548 73.3114 57.3058C71.3344 59.6034 69.0635 61.4468 66.4988 62.836C63.9875 64.1718 61.1556 64.8397 58.0031 64.8397C56.4536 64.8397 55.0643 64.4657 53.8354 63.7176C52.6065 62.9696 51.7248 61.9277 51.1905 60.5919L51.8317 59.2294C52.4195 60.4583 53.0874 61.3399 53.8354 61.8742C54.6369 62.4086 55.5452 62.6757 56.5604 62.6757C58.2168 62.6757 59.8198 62.0078 61.3693 60.672C62.9188 59.2828 64.3615 57.4394 65.6973 55.1418C67.0331 52.8442 68.2086 50.3062 69.2238 47.5278C70.239 44.6959 71.0138 41.864 71.5481 39.0321C72.0824 36.1467 72.3496 33.4484 72.3496 30.9371C72.3496 28.7998 72.0824 27.277 71.5481 26.3687C71.0672 25.4069 70.3459 24.926 69.3841 24.926ZM52.0722 60.5117C50.4692 60.8858 48.7861 61.5002 47.0228 62.3551C45.313 63.1566 43.6566 64.0382 42.0536 65L40.8514 64.439C41.2255 63.6909 41.546 62.9429 41.8132 62.1948C42.0269 61.3934 42.2407 60.5919 42.4544 59.7904L56.7207 10.2589C57.2016 8.44225 57.1215 7.10645 56.4803 6.25154C55.8925 5.39663 54.2896 4.96917 51.6714 4.96917L52.1523 3.28607C55.6788 3.23263 58.7779 2.93876 61.4495 2.40444C64.1745 1.81669 66.7659 1.01521 69.2238 0L52.0722 60.5117Z" fill="#AA3000"/>
</svg>
