<svg width="400" height="400" viewBox="0 0 400 400" fill="none" xmlns="http://www.w3.org/2000/svg" role="img" aria-label="Anonymous silhouette portrait">
  <defs>
    <linearGradient id="bg" x1="0" y1="0" x2="400" y2="400" gradientUnits="userSpaceOnUse">
      <stop offset="0" stop-color="#ececed"/>
      <stop offset="1" stop-color="#cfd1d4"/>
    </linearGradient>
    <linearGradient id="fig" x1="200" y1="60" x2="200" y2="400" gradientUnits="userSpaceOnUse">
      <stop offset="0" stop-color="#4a4d52"/>
      <stop offset="1" stop-color="#16181c"/>
    </linearGradient>
  </defs>

  <rect width="400" height="400" fill="url(#bg)"/>

  <!-- male head-and-shoulders silhouette (anonymous shadow) -->
  <g fill="url(#fig)">
    <!-- shoulders / chest -->
    <path d="M55 400c0-58 33-104 80-126 8-4 17-7 26-9 12-3 26-5 39-5s27 2 39 5c9 2 18 5 26 9 47 22 80 68 80 126Z"/>
    <!-- neck -->
    <path d="M174 226h52v40c0 14-12 24-26 24s-26-10-26-24Z"/>
    <!-- head + short hair (slightly squared male jaw, hair cap) -->
    <path d="M200 70c-37 0-66 28-66 70 0 14 3 27 9 38 11 21 33 36 57 36s46-15 57-36c6-11 9-24 9-38 0-42-29-70-66-70Z"/>
    <path d="M134 138c0-44 29-74 66-74s66 30 66 74c0-6-2-14-6-21-9-16-30-25-60-25s-51 9-60 25c-4 7-6 15-6 21Z"/>
  </g>
</svg>
